<svg xmlns="http://www.w3.org/2000/svg" viewBox="0 0 500 130">

    <path fill="#0b2a2b" d="M122.32,105c-14.76-10.59-33.63-10-56,1.19C43.31,95,24.43,94.45,9.68,105-8.6,119.2,7.9,126.3,25,126.3a75.15,75.15,0,0,0,41.25-11.82,75.33,75.33,0,0,0,41.28,11.82C124.1,126.86,140.6,119.2,122.32,105Zm-105,4.13C28,103.89,40.93,105,57.43,111.54,32.09,128.64-6.82,125.11,17.34,109.17Zm57.78,2.37c15.94-6.5,29.51-7.65,40.13-2.37C139.41,125.11,100.5,128.64,75.12,111.54Z"/>
    <path fill="#0b2a2b" d="M61.56,21.32c-4.72,5.31-13,12.37-25.35,20-2.93,3.56-2.34,8.28,2.38,14.75a60.68,60.68,0,0,1,13,35.38,118.7,118.7,0,0,0-21.81-33.6c-5.91-10-5.32-17.69,2.93-24.19,6.47-4.12,13-7.65,19.47-11.18C59.22,17.79,63.34,11.28,63.94,3,65.72,10.69,64.53,17.19,61.56,21.32Z"/>
    <path fill="#0b2a2b" d="M104,57.88c-8.25,8.85-15.34,20-21.81,33.6,0-12.38,4.72-24.16,13-35.38,4.72-7.06,5.31-11.78,2.34-14.75-12.37-8.25-21.22-14.72-25.94-20C68.66,17.19,67.47,10.69,69.25,3c1.15,8.85,5.31,15.35,12.37,19.48C87.53,25.44,94,29.57,101.1,33.69,109.35,40.19,110.53,48.44,104,57.88Z"/>
    <path fill="#0b2a2b" d="M78.09,50.19A11.8,11.8,0,1,1,66.28,38.41,11.84,11.84,0,0,1,78.09,50.19Z"/>
    <path fill="#0b2a2b" d="M240,63v3.5c-6,0-8.94,4.42-8.94,13.3v25.08A60.83,60.83,0,0,1,214,112.07a84,84,0,0,1-20,2.25,51.77,51.77,0,0,1-25.94-6.6A49.07,49.07,0,0,1,150,89.5a52.08,52.08,0,0,1-6.43-25.64,50.79,50.79,0,0,1,5.74-24.23,42.18,42.18,0,0,1,16.24-17.09,46.75,46.75,0,0,1,24.22-6.31c8.22,0,15.25,1.09,21,3.24s10.1,4.85,12.91,8.12a15.35,15.35,0,0,1,2.93,7.85,82.39,82.39,0,0,1,.7,11.62h-4.2c-1.78-8.52-5-14.72-9.8-18.65S202.18,22.54,194,22.54q-15.69,0-23.26,11.78c-5,7.82-7.56,17.69-7.56,29.54q0,24,8.25,34.48,8.42,10.35,22.57,10.37,10.95,0,18.91-3.67V80.13a15.29,15.29,0,0,1,5.61-12.21C222.21,64.65,229.41,63,240,63Z"/>
    <path fill="#0b2a2b" d="M320.82,93.86,289.44,19h-6.31l-41.31,92.47h7.26L260.56,86h37.29l3.2,7.86c3,7.19,6.87,12,11.65,14.55a34.42,34.42,0,0,0,15.94,3.66,25,25,0,0,0,6.74-.72v-3.5Q326.13,106.86,320.82,93.86ZM263.5,79.7l16.27-36.57L295.18,79.7Z"/>
    <path fill="#0b2a2b" d="M410.92,19,379.1,70.72v40.79H360.89v-37L336.1,37.26a59.24,59.24,0,0,0-9.24-10.53c-3.27-3-6.4-4.62-9.4-4.88V19h15.28a20.22,20.22,0,0,1,12.87,4.49,41,41,0,0,1,10,10.92l19.05,28.71L401.81,19Z"/>
    <path fill="#0b2a2b" d="M499,19V71.15q0,20.59-8.71,31.25-8.67,10.5-28.42,10.5Q424,112.9,424,71.15V37.26c0-4.79-.63-8.29-1.95-10.53s-3.92-3.5-7.85-3.5V19h15.41q5.06,0,7.72,1.68a9.23,9.23,0,0,1,3.76,5.61,39.92,39.92,0,0,1,1.13,10.93l.16,38.08q.11,14.85,5.74,23.14,5.75,8.11,16.54,8.11c9.5,0,16.43-2.8,20.72-8.41s6.57-14.69,6.57-27V19Z"/>

</svg>